<?xml version="1.0" encoding="UTF-8" standalone="no"?>
<!DOCTYPE svg PUBLIC "-//W3C//DTD SVG 1.1//EN" "http://www.w3.org/Graphics/SVG/1.1/DTD/svg11.dtd">
<svg width="100%" height="100%" viewBox="0 0 3000 1596" version="1.1" xmlns="http://www.w3.org/2000/svg" xmlns:xlink="http://www.w3.org/1999/xlink" xml:space="preserve" xmlns:serif="http://www.serif.com/" style="fill-rule:evenodd;clip-rule:evenodd;stroke-linecap:round;stroke-linejoin:round;stroke-miterlimit:1.5;">
    <g transform="matrix(1.16921,0,0,1.16921,-253.817,-111.04)">
        <g transform="matrix(20.5102,0,0,20.5102,-14098.1,-24670.1)">
            <g transform="matrix(50,0,0,50,695.68,1261.75)">
                <path d="M1.286,-0.656C1.289,-0.656 1.292,-0.654 1.293,-0.651C1.294,-0.648 1.294,-0.645 1.292,-0.642C1.26,-0.614 1.231,-0.581 1.206,-0.542C1.18,-0.502 1.158,-0.461 1.139,-0.418C1.12,-0.375 1.106,-0.331 1.096,-0.285C1.086,-0.241 1.081,-0.198 1.081,-0.159C1.081,-0.123 1.085,-0.095 1.094,-0.075C1.103,-0.054 1.115,-0.044 1.13,-0.044C1.155,-0.044 1.18,-0.063 1.205,-0.1C1.207,-0.102 1.209,-0.102 1.212,-0.101C1.214,-0.099 1.215,-0.097 1.214,-0.094C1.207,-0.083 1.198,-0.071 1.19,-0.061C1.181,-0.05 1.171,-0.04 1.161,-0.031C1.151,-0.021 1.141,-0.014 1.132,-0.009C1.122,-0.003 1.113,-0 1.105,-0C1.088,-0 1.072,-0.01 1.059,-0.031C1.046,-0.051 1.039,-0.082 1.039,-0.124C1.039,-0.159 1.043,-0.196 1.05,-0.236C1.057,-0.276 1.067,-0.316 1.081,-0.357C1.095,-0.397 1.113,-0.436 1.134,-0.474C1.155,-0.512 1.179,-0.547 1.206,-0.578C1.165,-0.547 1.123,-0.51 1.079,-0.468C1.037,-0.425 0.995,-0.379 0.956,-0.33C0.916,-0.281 0.879,-0.23 0.845,-0.179C0.811,-0.127 0.783,-0.077 0.76,-0.029C0.757,-0.024 0.752,-0.018 0.745,-0.011C0.738,-0.004 0.732,-0 0.728,-0C0.723,-0 0.721,-0.002 0.721,-0.007C0.734,-0.11 0.752,-0.202 0.776,-0.282C0.799,-0.363 0.827,-0.437 0.86,-0.505C0.807,-0.425 0.754,-0.354 0.703,-0.291C0.652,-0.228 0.6,-0.175 0.549,-0.133C0.498,-0.09 0.445,-0.057 0.392,-0.034C0.339,-0.011 0.283,-0 0.226,-0C0.199,-0 0.174,-0.004 0.153,-0.013C0.132,-0.022 0.113,-0.034 0.098,-0.049C0.083,-0.064 0.071,-0.082 0.063,-0.103C0.055,-0.124 0.051,-0.146 0.051,-0.171C0.051,-0.203 0.059,-0.232 0.074,-0.259C0.089,-0.286 0.111,-0.307 0.14,-0.322C0.143,-0.323 0.145,-0.323 0.146,-0.32C0.147,-0.317 0.146,-0.315 0.145,-0.312C0.124,-0.299 0.11,-0.283 0.102,-0.266C0.093,-0.249 0.089,-0.226 0.089,-0.198C0.089,-0.176 0.093,-0.155 0.1,-0.136C0.107,-0.116 0.118,-0.099 0.133,-0.084C0.147,-0.069 0.165,-0.058 0.186,-0.049C0.206,-0.04 0.231,-0.036 0.259,-0.036C0.318,-0.036 0.374,-0.05 0.428,-0.077C0.481,-0.103 0.533,-0.141 0.584,-0.188C0.635,-0.235 0.684,-0.291 0.733,-0.354C0.782,-0.417 0.83,-0.486 0.879,-0.559C0.832,-0.575 0.784,-0.589 0.733,-0.6C0.682,-0.611 0.633,-0.616 0.586,-0.616C0.536,-0.616 0.494,-0.602 0.461,-0.573C0.428,-0.544 0.407,-0.499 0.4,-0.44C0.399,-0.437 0.397,-0.435 0.395,-0.436C0.392,-0.437 0.391,-0.439 0.39,-0.442C0.397,-0.507 0.421,-0.557 0.462,-0.592C0.503,-0.627 0.556,-0.644 0.621,-0.644C0.648,-0.644 0.676,-0.642 0.704,-0.639C0.732,-0.635 0.759,-0.63 0.786,-0.625C0.813,-0.619 0.838,-0.613 0.863,-0.606C0.887,-0.599 0.909,-0.592 0.929,-0.585C0.93,-0.586 0.932,-0.586 0.934,-0.586C0.935,-0.586 0.937,-0.586 0.938,-0.587C0.941,-0.587 0.942,-0.586 0.943,-0.583C0.943,-0.58 0.942,-0.578 0.941,-0.576C0.932,-0.57 0.924,-0.563 0.918,-0.554C0.912,-0.545 0.905,-0.534 0.898,-0.52C0.865,-0.453 0.838,-0.384 0.819,-0.311C0.799,-0.237 0.782,-0.164 0.769,-0.089C0.8,-0.144 0.836,-0.2 0.877,-0.255C0.918,-0.31 0.961,-0.363 1.006,-0.413C1.051,-0.463 1.098,-0.509 1.146,-0.551C1.194,-0.592 1.241,-0.627 1.286,-0.656Z" style="fill-rule:nonzero;"/>
            </g>
            <g transform="matrix(50,0,0,50,756.63,1261.75)">
                <path d="M0.065,-0C0.056,-0 0.049,-0.004 0.042,-0.013C0.035,-0.021 0.032,-0.032 0.032,-0.045C0.032,-0.056 0.034,-0.068 0.037,-0.083C0.04,-0.097 0.043,-0.112 0.049,-0.128C0.054,-0.144 0.06,-0.16 0.067,-0.176C0.074,-0.192 0.083,-0.207 0.092,-0.221C0.085,-0.216 0.077,-0.21 0.069,-0.203C0.061,-0.197 0.054,-0.191 0.049,-0.186C0.047,-0.185 0.045,-0.185 0.044,-0.188C0.043,-0.19 0.042,-0.192 0.043,-0.194C0.048,-0.199 0.054,-0.204 0.061,-0.21C0.068,-0.216 0.076,-0.222 0.085,-0.228C0.093,-0.234 0.102,-0.24 0.111,-0.246C0.119,-0.251 0.128,-0.256 0.136,-0.26C0.139,-0.261 0.141,-0.26 0.142,-0.258C0.144,-0.256 0.145,-0.254 0.144,-0.251C0.123,-0.224 0.106,-0.194 0.093,-0.161C0.08,-0.128 0.073,-0.096 0.073,-0.066C0.073,-0.047 0.079,-0.037 0.09,-0.037C0.099,-0.037 0.11,-0.043 0.123,-0.055C0.136,-0.066 0.149,-0.082 0.163,-0.101C0.177,-0.119 0.191,-0.141 0.205,-0.165C0.22,-0.189 0.233,-0.213 0.245,-0.238C0.247,-0.243 0.251,-0.247 0.257,-0.251C0.262,-0.254 0.268,-0.256 0.275,-0.256C0.284,-0.256 0.287,-0.253 0.284,-0.248C0.275,-0.231 0.266,-0.215 0.259,-0.2C0.252,-0.185 0.246,-0.17 0.241,-0.155C0.236,-0.14 0.233,-0.125 0.231,-0.11C0.228,-0.095 0.227,-0.078 0.227,-0.06C0.227,-0.039 0.233,-0.028 0.245,-0.028C0.25,-0.028 0.256,-0.031 0.263,-0.037C0.27,-0.042 0.276,-0.05 0.283,-0.059C0.285,-0.06 0.287,-0.06 0.289,-0.059C0.291,-0.058 0.291,-0.055 0.29,-0.052C0.281,-0.038 0.27,-0.026 0.258,-0.016C0.245,-0.005 0.233,-0 0.222,-0C0.213,-0 0.206,-0.004 0.2,-0.013C0.194,-0.022 0.191,-0.033 0.191,-0.048C0.191,-0.064 0.193,-0.081 0.196,-0.1C0.199,-0.118 0.203,-0.136 0.21,-0.155C0.197,-0.13 0.184,-0.109 0.17,-0.09C0.156,-0.07 0.142,-0.054 0.13,-0.041C0.117,-0.028 0.104,-0.018 0.093,-0.011C0.082,-0.004 0.072,-0 0.065,-0Z" style="fill-rule:nonzero;"/>
            </g>
            <g transform="matrix(50,0,0,50,771.58,1261.75)">
                <path d="M0.139,-0.256C0.152,-0.256 0.164,-0.254 0.172,-0.25C0.182,-0.245 0.186,-0.24 0.186,-0.235C0.186,-0.228 0.185,-0.219 0.182,-0.21C0.179,-0.201 0.175,-0.193 0.172,-0.187C0.171,-0.186 0.169,-0.186 0.167,-0.187C0.164,-0.188 0.163,-0.189 0.164,-0.191C0.166,-0.196 0.167,-0.201 0.168,-0.207C0.169,-0.213 0.168,-0.218 0.167,-0.223C0.164,-0.236 0.154,-0.243 0.139,-0.243C0.128,-0.243 0.118,-0.24 0.112,-0.233C0.105,-0.226 0.101,-0.216 0.101,-0.203C0.101,-0.192 0.104,-0.182 0.11,-0.172C0.115,-0.163 0.122,-0.153 0.129,-0.143C0.136,-0.134 0.142,-0.124 0.148,-0.113C0.153,-0.102 0.156,-0.089 0.156,-0.076C0.156,-0.055 0.149,-0.037 0.134,-0.022C0.118,-0.007 0.096,-0 0.066,-0C0.045,-0 0.028,-0.004 0.015,-0.011C0.002,-0.018 -0.005,-0.026 -0.005,-0.034C-0.005,-0.04 -0.001,-0.049 0.006,-0.061C0.013,-0.073 0.022,-0.083 0.031,-0.09C0.033,-0.091 0.035,-0.091 0.037,-0.089C0.038,-0.087 0.038,-0.085 0.037,-0.083C0.032,-0.078 0.028,-0.071 0.025,-0.065C0.022,-0.058 0.022,-0.051 0.023,-0.046C0.025,-0.035 0.03,-0.026 0.039,-0.021C0.047,-0.015 0.057,-0.012 0.068,-0.012C0.085,-0.012 0.099,-0.017 0.109,-0.026C0.118,-0.035 0.123,-0.047 0.123,-0.062C0.123,-0.075 0.12,-0.086 0.114,-0.098C0.108,-0.109 0.102,-0.119 0.095,-0.13C0.087,-0.14 0.081,-0.15 0.076,-0.161C0.07,-0.171 0.067,-0.182 0.067,-0.194C0.067,-0.211 0.074,-0.226 0.086,-0.238C0.1,-0.25 0.117,-0.256 0.139,-0.256Z" style="fill-rule:nonzero;"/>
            </g>
            <g transform="matrix(50,0,0,50,780.98,1261.75)">
                <path d="M0.052,-0.186C0.05,-0.185 0.048,-0.185 0.047,-0.188C0.045,-0.19 0.045,-0.192 0.046,-0.194C0.055,-0.203 0.068,-0.214 0.084,-0.226C0.1,-0.238 0.116,-0.248 0.132,-0.256C0.137,-0.256 0.14,-0.253 0.14,-0.247C0.131,-0.232 0.123,-0.215 0.115,-0.197C0.106,-0.179 0.099,-0.161 0.093,-0.143C0.086,-0.126 0.081,-0.109 0.077,-0.093C0.073,-0.076 0.071,-0.063 0.071,-0.052C0.071,-0.038 0.076,-0.031 0.085,-0.031C0.092,-0.031 0.1,-0.034 0.107,-0.041C0.114,-0.047 0.122,-0.055 0.131,-0.066C0.132,-0.067 0.134,-0.067 0.136,-0.065C0.138,-0.063 0.138,-0.061 0.137,-0.058C0.125,-0.043 0.112,-0.03 0.099,-0.018C0.085,-0.006 0.072,-0 0.06,-0C0.043,-0 0.034,-0.011 0.034,-0.033C0.034,-0.046 0.036,-0.061 0.041,-0.079C0.045,-0.096 0.05,-0.114 0.057,-0.132C0.064,-0.15 0.071,-0.167 0.08,-0.184C0.088,-0.201 0.096,-0.215 0.104,-0.227C0.097,-0.222 0.087,-0.215 0.077,-0.206C0.066,-0.198 0.057,-0.191 0.052,-0.186ZM0.142,-0.299C0.14,-0.297 0.138,-0.297 0.137,-0.299C0.135,-0.3 0.134,-0.303 0.133,-0.306C0.132,-0.309 0.132,-0.312 0.132,-0.316C0.132,-0.32 0.133,-0.323 0.135,-0.326C0.152,-0.35 0.177,-0.376 0.208,-0.403C0.21,-0.404 0.212,-0.403 0.214,-0.402C0.216,-0.4 0.216,-0.398 0.215,-0.397C0.201,-0.384 0.188,-0.369 0.175,-0.352C0.162,-0.334 0.151,-0.316 0.142,-0.299Z" style="fill-rule:nonzero;"/>
            </g>
            <g transform="matrix(50,0,0,50,788.43,1261.75)">
                <path d="M0.282,-0.064C0.284,-0.065 0.286,-0.065 0.288,-0.064C0.29,-0.063 0.291,-0.061 0.29,-0.058C0.279,-0.043 0.266,-0.029 0.253,-0.018C0.239,-0.006 0.226,-0 0.214,-0C0.193,-0 0.183,-0.013 0.183,-0.04C0.183,-0.063 0.187,-0.088 0.195,-0.116C0.203,-0.143 0.214,-0.171 0.228,-0.199C0.231,-0.204 0.232,-0.208 0.232,-0.213C0.232,-0.22 0.229,-0.224 0.222,-0.224C0.197,-0.224 0.17,-0.207 0.141,-0.173C0.111,-0.139 0.083,-0.086 0.058,-0.013C0.057,-0.009 0.053,-0.006 0.047,-0.004C0.041,-0.001 0.035,-0 0.03,-0C0.023,-0 0.02,-0.003 0.022,-0.009C0.033,-0.038 0.045,-0.07 0.058,-0.106C0.07,-0.142 0.081,-0.178 0.09,-0.213C0.093,-0.226 0.09,-0.232 0.083,-0.232C0.076,-0.232 0.07,-0.229 0.063,-0.222C0.056,-0.215 0.049,-0.207 0.042,-0.196C0.041,-0.195 0.039,-0.195 0.038,-0.197C0.036,-0.199 0.035,-0.201 0.036,-0.203C0.043,-0.214 0.053,-0.226 0.066,-0.238C0.079,-0.25 0.092,-0.256 0.107,-0.256C0.124,-0.256 0.129,-0.245 0.124,-0.222C0.121,-0.207 0.118,-0.192 0.113,-0.175C0.108,-0.159 0.103,-0.143 0.098,-0.127C0.107,-0.145 0.118,-0.162 0.131,-0.178C0.144,-0.194 0.157,-0.208 0.171,-0.219C0.184,-0.23 0.198,-0.239 0.212,-0.246C0.225,-0.253 0.238,-0.256 0.25,-0.256C0.258,-0.256 0.264,-0.254 0.269,-0.25C0.273,-0.246 0.275,-0.241 0.275,-0.236C0.275,-0.227 0.273,-0.219 0.269,-0.21C0.255,-0.185 0.243,-0.158 0.234,-0.131C0.224,-0.103 0.219,-0.077 0.219,-0.054C0.219,-0.037 0.224,-0.029 0.235,-0.029C0.249,-0.029 0.265,-0.041 0.282,-0.064Z" style="fill-rule:nonzero;"/>
            </g>
            <g transform="matrix(50,0,0,50,802.98,1261.75)">
                <path d="M0.226,-0.27C0.228,-0.271 0.23,-0.271 0.232,-0.27C0.234,-0.268 0.234,-0.266 0.233,-0.263C0.228,-0.255 0.221,-0.248 0.213,-0.242C0.205,-0.235 0.195,-0.232 0.183,-0.233C0.189,-0.223 0.192,-0.21 0.192,-0.194C0.192,-0.179 0.19,-0.165 0.185,-0.152C0.18,-0.139 0.175,-0.127 0.169,-0.116C0.163,-0.105 0.157,-0.094 0.151,-0.084C0.144,-0.074 0.139,-0.064 0.136,-0.053C0.132,-0.042 0.13,-0.032 0.131,-0.021C0.131,-0.01 0.135,0.003 0.142,0.016C0.148,0.027 0.154,0.037 0.159,0.046C0.164,0.055 0.168,0.064 0.172,0.072C0.175,0.081 0.178,0.089 0.18,0.098C0.181,0.107 0.182,0.116 0.182,0.126C0.182,0.142 0.179,0.157 0.172,0.171C0.165,0.186 0.156,0.198 0.143,0.209C0.13,0.22 0.115,0.229 0.097,0.235C0.079,0.242 0.059,0.245 0.036,0.245C0.013,0.245 -0.008,0.242 -0.027,0.235C-0.046,0.228 -0.061,0.219 -0.074,0.208C-0.087,0.197 -0.097,0.185 -0.104,0.17C-0.111,0.156 -0.114,0.141 -0.114,0.126C-0.114,0.106 -0.107,0.088 -0.092,0.073C-0.078,0.058 -0.058,0.047 -0.031,0.04C-0.028,0.04 -0.025,0.041 -0.024,0.043C-0.023,0.046 -0.024,0.048 -0.026,0.05C-0.04,0.055 -0.051,0.063 -0.06,0.074C-0.069,0.085 -0.073,0.099 -0.073,0.117C-0.073,0.151 -0.061,0.178 -0.038,0.199C-0.015,0.22 0.016,0.23 0.054,0.23C0.086,0.23 0.11,0.222 0.125,0.205C0.14,0.189 0.148,0.168 0.148,0.142C0.148,0.127 0.146,0.113 0.141,0.101C0.136,0.089 0.129,0.075 0.12,0.06C0.107,0.039 0.102,0.018 0.103,-0.002C0.105,-0.021 0.112,-0.042 0.124,-0.063C0.125,-0.066 0.127,-0.068 0.129,-0.07C0.13,-0.073 0.132,-0.076 0.133,-0.079C0.126,-0.071 0.117,-0.064 0.108,-0.058C0.098,-0.052 0.09,-0.049 0.083,-0.049C0.05,-0.049 0.034,-0.07 0.034,-0.113C0.034,-0.127 0.037,-0.142 0.042,-0.159C0.047,-0.176 0.055,-0.191 0.065,-0.205C0.074,-0.22 0.086,-0.232 0.099,-0.241C0.112,-0.25 0.126,-0.255 0.142,-0.255C0.165,-0.255 0.183,-0.256 0.196,-0.258C0.209,-0.259 0.219,-0.263 0.226,-0.27ZM0.146,-0.103C0.15,-0.112 0.153,-0.122 0.156,-0.132C0.159,-0.142 0.16,-0.152 0.16,-0.162C0.16,-0.181 0.157,-0.197 0.151,-0.207C0.144,-0.219 0.134,-0.224 0.12,-0.224C0.104,-0.224 0.091,-0.216 0.08,-0.2C0.069,-0.184 0.063,-0.161 0.063,-0.132C0.063,-0.113 0.066,-0.099 0.073,-0.09C0.079,-0.081 0.088,-0.077 0.101,-0.077C0.108,-0.077 0.116,-0.079 0.125,-0.084C0.134,-0.089 0.141,-0.095 0.146,-0.103Z" style="fill-rule:nonzero;"/>
            </g>
            <g transform="matrix(50,0,0,50,813.48,1261.75)">
                <path d="M0.139,-0.256C0.152,-0.256 0.164,-0.254 0.172,-0.25C0.182,-0.245 0.186,-0.24 0.186,-0.235C0.186,-0.228 0.185,-0.219 0.182,-0.21C0.179,-0.201 0.175,-0.193 0.172,-0.187C0.171,-0.186 0.169,-0.186 0.167,-0.187C0.164,-0.188 0.163,-0.189 0.164,-0.191C0.166,-0.196 0.167,-0.201 0.168,-0.207C0.169,-0.213 0.168,-0.218 0.167,-0.223C0.164,-0.236 0.154,-0.243 0.139,-0.243C0.128,-0.243 0.118,-0.24 0.112,-0.233C0.105,-0.226 0.101,-0.216 0.101,-0.203C0.101,-0.192 0.104,-0.182 0.11,-0.172C0.115,-0.163 0.122,-0.153 0.129,-0.143C0.136,-0.134 0.142,-0.124 0.148,-0.113C0.153,-0.102 0.156,-0.089 0.156,-0.076C0.156,-0.055 0.149,-0.037 0.134,-0.022C0.118,-0.007 0.096,-0 0.066,-0C0.045,-0 0.028,-0.004 0.015,-0.011C0.002,-0.018 -0.005,-0.026 -0.005,-0.034C-0.005,-0.04 -0.001,-0.049 0.006,-0.061C0.013,-0.073 0.022,-0.083 0.031,-0.09C0.033,-0.091 0.035,-0.091 0.037,-0.089C0.038,-0.087 0.038,-0.085 0.037,-0.083C0.032,-0.078 0.028,-0.071 0.025,-0.065C0.022,-0.058 0.022,-0.051 0.023,-0.046C0.025,-0.035 0.03,-0.026 0.039,-0.021C0.047,-0.015 0.057,-0.012 0.068,-0.012C0.085,-0.012 0.099,-0.017 0.109,-0.026C0.118,-0.035 0.123,-0.047 0.123,-0.062C0.123,-0.075 0.12,-0.086 0.114,-0.098C0.108,-0.109 0.102,-0.119 0.095,-0.13C0.087,-0.14 0.081,-0.15 0.076,-0.161C0.07,-0.171 0.067,-0.182 0.067,-0.194C0.067,-0.211 0.074,-0.226 0.086,-0.238C0.1,-0.25 0.117,-0.256 0.139,-0.256Z" style="fill-rule:nonzero;"/>
            </g>
        </g>
        <g transform="matrix(4.56958,0,0,4.56958,112.222,-3267.76)">
            <g transform="matrix(50,0,0,50,436.468,865.311)">
                <path d="M0.183,-0.002L0.053,0.005C0.034,0.005 0.024,0.001 0.024,-0.007C0.024,-0.014 0.036,-0.02 0.06,-0.025C0.084,-0.029 0.102,-0.037 0.113,-0.048C0.124,-0.059 0.13,-0.076 0.13,-0.1L0.13,-0.522C0.13,-0.554 0.126,-0.578 0.118,-0.593C0.11,-0.608 0.094,-0.618 0.071,-0.622C0.048,-0.626 0.036,-0.633 0.036,-0.642C0.036,-0.649 0.046,-0.653 0.065,-0.653L0.163,-0.652L0.274,-0.658C0.325,-0.658 0.369,-0.651 0.407,-0.636C0.446,-0.622 0.476,-0.602 0.498,-0.576C0.52,-0.549 0.531,-0.518 0.531,-0.482C0.531,-0.439 0.522,-0.4 0.504,-0.365C0.487,-0.33 0.461,-0.303 0.428,-0.283C0.394,-0.264 0.352,-0.254 0.303,-0.254C0.29,-0.254 0.279,-0.256 0.271,-0.26C0.262,-0.264 0.258,-0.268 0.258,-0.273C0.258,-0.276 0.26,-0.278 0.264,-0.281C0.267,-0.283 0.271,-0.284 0.274,-0.284L0.289,-0.282L0.32,-0.279C0.401,-0.279 0.441,-0.339 0.441,-0.458C0.441,-0.517 0.426,-0.56 0.396,-0.588C0.366,-0.616 0.325,-0.63 0.274,-0.63C0.231,-0.63 0.21,-0.616 0.21,-0.588L0.21,-0.111C0.21,-0.061 0.232,-0.032 0.277,-0.024C0.299,-0.02 0.31,-0.014 0.31,-0.007C0.31,0.001 0.3,0.005 0.281,0.005C0.272,0.005 0.262,0.005 0.253,0.004C0.244,0.003 0.235,0.002 0.226,0.001C0.209,-0.001 0.195,-0.002 0.183,-0.002Z" style="fill-rule:nonzero;"/>
            </g>
            <g transform="matrix(50,0,0,50,464.068,865.311)">
                <path d="M0.46,-0.207C0.46,-0.168 0.451,-0.132 0.434,-0.099C0.416,-0.065 0.39,-0.038 0.357,-0.017C0.323,0.004 0.282,0.014 0.234,0.014C0.197,0.014 0.163,0.005 0.133,-0.012C0.102,-0.029 0.078,-0.053 0.061,-0.084C0.044,-0.114 0.035,-0.148 0.035,-0.187C0.035,-0.216 0.041,-0.244 0.052,-0.271C0.063,-0.298 0.079,-0.322 0.1,-0.344C0.12,-0.365 0.143,-0.382 0.169,-0.395C0.195,-0.408 0.223,-0.414 0.252,-0.414C0.291,-0.414 0.327,-0.405 0.358,-0.387C0.389,-0.368 0.414,-0.344 0.433,-0.313C0.451,-0.281 0.46,-0.246 0.46,-0.207ZM0.117,-0.21C0.117,-0.176 0.123,-0.144 0.136,-0.115C0.148,-0.085 0.165,-0.061 0.186,-0.043C0.206,-0.025 0.23,-0.016 0.255,-0.016C0.288,-0.016 0.314,-0.023 0.332,-0.038C0.349,-0.052 0.361,-0.072 0.368,-0.098C0.375,-0.123 0.378,-0.153 0.378,-0.187C0.378,-0.222 0.372,-0.254 0.36,-0.283C0.347,-0.313 0.331,-0.337 0.31,-0.356C0.289,-0.374 0.264,-0.383 0.237,-0.383C0.157,-0.383 0.117,-0.325 0.117,-0.21Z" style="fill-rule:nonzero;"/>
            </g>
            <g transform="matrix(50,0,0,50,488.818,865.311)">
                <path d="M0.352,-0.071C0.349,-0.06 0.341,-0.047 0.327,-0.034C0.313,-0.021 0.295,-0.009 0.272,-0C0.249,0.009 0.223,0.014 0.194,0.014C0.165,0.014 0.138,0.005 0.113,-0.014C0.087,-0.032 0.068,-0.057 0.053,-0.089C0.038,-0.121 0.03,-0.157 0.03,-0.198C0.03,-0.239 0.039,-0.275 0.057,-0.308C0.074,-0.341 0.098,-0.367 0.128,-0.386C0.158,-0.405 0.192,-0.414 0.229,-0.414C0.269,-0.414 0.301,-0.406 0.324,-0.389C0.346,-0.372 0.358,-0.35 0.358,-0.321C0.358,-0.292 0.351,-0.275 0.337,-0.268C0.322,-0.261 0.304,-0.257 0.281,-0.257L0.117,-0.257C0.108,-0.257 0.101,-0.255 0.098,-0.251C0.094,-0.246 0.092,-0.236 0.092,-0.22C0.092,-0.189 0.099,-0.161 0.112,-0.134C0.125,-0.107 0.143,-0.086 0.166,-0.07C0.188,-0.054 0.213,-0.046 0.241,-0.046C0.282,-0.046 0.314,-0.061 0.337,-0.09C0.342,-0.095 0.345,-0.097 0.348,-0.097C0.353,-0.097 0.355,-0.094 0.355,-0.087C0.355,-0.082 0.354,-0.077 0.352,-0.071ZM0.111,-0.303C0.111,-0.293 0.117,-0.288 0.13,-0.288L0.212,-0.288C0.227,-0.288 0.241,-0.289 0.254,-0.29C0.266,-0.291 0.276,-0.292 0.285,-0.293C0.292,-0.294 0.295,-0.303 0.295,-0.322C0.295,-0.34 0.287,-0.355 0.27,-0.366C0.253,-0.377 0.233,-0.383 0.21,-0.383C0.194,-0.383 0.179,-0.379 0.164,-0.37C0.149,-0.361 0.136,-0.35 0.126,-0.338C0.116,-0.325 0.111,-0.314 0.111,-0.303Z" style="fill-rule:nonzero;"/>
            </g>
            <g transform="matrix(50,0,0,50,508.218,865.311)">
                <path d="M0.29,-0.027C0.279,-0.017 0.265,-0.008 0.246,0.001C0.227,0.01 0.208,0.014 0.189,0.014C0.156,0.014 0.131,0.004 0.113,-0.016C0.094,-0.035 0.085,-0.065 0.085,-0.105L0.085,-0.337C0.085,-0.343 0.083,-0.347 0.078,-0.349C0.073,-0.351 0.063,-0.352 0.047,-0.352C0.045,-0.352 0.043,-0.355 0.04,-0.36C0.037,-0.365 0.035,-0.369 0.035,-0.372C0.035,-0.375 0.037,-0.377 0.04,-0.379C0.055,-0.384 0.071,-0.393 0.087,-0.408C0.103,-0.423 0.116,-0.436 0.126,-0.449C0.136,-0.462 0.142,-0.468 0.144,-0.468C0.153,-0.468 0.158,-0.465 0.158,-0.458L0.156,-0.414C0.156,-0.405 0.164,-0.4 0.18,-0.4L0.294,-0.4C0.301,-0.4 0.304,-0.392 0.304,-0.376C0.304,-0.36 0.301,-0.352 0.294,-0.352L0.195,-0.352C0.177,-0.352 0.166,-0.351 0.162,-0.348C0.157,-0.345 0.155,-0.337 0.155,-0.324L0.155,-0.135C0.155,-0.101 0.161,-0.077 0.174,-0.063C0.187,-0.048 0.202,-0.041 0.221,-0.041C0.254,-0.041 0.279,-0.047 0.296,-0.06C0.297,-0.061 0.298,-0.061 0.299,-0.061C0.304,-0.061 0.306,-0.057 0.306,-0.048C0.306,-0.043 0.301,-0.036 0.29,-0.027Z" style="fill-rule:nonzero;"/>
            </g>
            <g transform="matrix(50,0,0,50,523.918,865.311)">
                <path d="M0.169,-0.563C0.168,-0.549 0.163,-0.537 0.154,-0.528C0.145,-0.519 0.133,-0.514 0.118,-0.513C0.103,-0.514 0.091,-0.519 0.082,-0.528C0.073,-0.537 0.068,-0.549 0.068,-0.564C0.068,-0.579 0.073,-0.591 0.082,-0.6C0.091,-0.609 0.103,-0.614 0.118,-0.614C0.133,-0.614 0.145,-0.609 0.154,-0.6C0.163,-0.591 0.168,-0.578 0.169,-0.563ZM0.125,-0.002L0.044,0.003C0.031,0.003 0.024,-0 0.024,-0.007C0.024,-0.013 0.033,-0.019 0.052,-0.025C0.071,-0.031 0.082,-0.037 0.085,-0.044C0.088,-0.051 0.09,-0.057 0.09,-0.062L0.09,-0.279C0.09,-0.32 0.074,-0.345 0.043,-0.352C0.038,-0.353 0.035,-0.358 0.035,-0.365C0.035,-0.372 0.037,-0.376 0.042,-0.377C0.074,-0.385 0.108,-0.401 0.144,-0.424C0.155,-0.431 0.161,-0.434 0.162,-0.434C0.167,-0.434 0.169,-0.432 0.169,-0.429C0.163,-0.368 0.16,-0.323 0.16,-0.294L0.16,-0.062C0.16,-0.049 0.164,-0.04 0.172,-0.036C0.181,-0.032 0.192,-0.028 0.206,-0.023C0.219,-0.018 0.226,-0.012 0.226,-0.007C0.226,-0 0.219,0.003 0.206,0.003L0.125,-0.002Z" style="fill-rule:nonzero;"/>
            </g>
            <g transform="matrix(50,0,0,50,536.168,865.311)">
                <path d="M0.372,-0.079C0.372,-0.066 0.364,-0.052 0.348,-0.038C0.332,-0.023 0.311,-0.011 0.284,-0.001C0.258,0.009 0.23,0.014 0.2,0.014C0.17,0.014 0.142,0.005 0.117,-0.013C0.093,-0.03 0.073,-0.054 0.058,-0.085C0.043,-0.115 0.035,-0.149 0.035,-0.188C0.035,-0.227 0.044,-0.263 0.063,-0.298C0.082,-0.332 0.107,-0.36 0.138,-0.381C0.169,-0.402 0.204,-0.413 0.242,-0.413C0.299,-0.413 0.34,-0.397 0.366,-0.365C0.369,-0.36 0.371,-0.355 0.371,-0.35C0.371,-0.344 0.366,-0.337 0.357,-0.33C0.347,-0.323 0.338,-0.319 0.33,-0.319C0.322,-0.319 0.315,-0.322 0.308,-0.329C0.296,-0.342 0.286,-0.352 0.278,-0.359C0.27,-0.366 0.261,-0.37 0.252,-0.373C0.243,-0.375 0.23,-0.376 0.214,-0.376C0.179,-0.376 0.152,-0.361 0.133,-0.332C0.114,-0.302 0.104,-0.264 0.104,-0.219C0.104,-0.189 0.111,-0.16 0.125,-0.133C0.138,-0.105 0.157,-0.082 0.181,-0.065C0.205,-0.047 0.232,-0.038 0.263,-0.038C0.283,-0.038 0.299,-0.042 0.312,-0.05C0.324,-0.057 0.337,-0.07 0.351,-0.088C0.354,-0.091 0.357,-0.093 0.36,-0.093C0.363,-0.093 0.365,-0.092 0.368,-0.089C0.371,-0.086 0.372,-0.082 0.372,-0.079Z" style="fill-rule:nonzero;"/>
            </g>
        </g>
        <g transform="matrix(1,0,0,1,0,-502)">
            <path d="M2132.18,1305C2132.18,1305 2210.34,1220.57 2379.73,1265C2602.86,1323.53 2701.83,1203.53 2701,1203.55" style="fill:none;stroke:black;stroke-width:7.84px;"/>
        </g>
        <g transform="matrix(-8.1389,0,0,8.1389,4597.77,-319.528)">
            <path d="M358.293,87.679C370.944,80.237 378.02,65.548 375.995,50.928C346.298,71.118 324.02,102.115 313.849,135.872C320.466,122.726 335.51,94.847 354.963,74.868C354.963,74.868 354.867,75.017 354.685,75.298C354.51,75.386 354.32,75.539 354.146,75.755C354.146,75.755 353.336,76.776 351.92,78.561C351.217,79.459 350.363,80.549 349.385,81.799C348.398,83.044 347.321,84.476 346.18,86.065C345.032,87.649 343.788,89.364 342.473,91.177C341.16,92.994 339.872,94.978 338.502,97.004C337.821,98.02 337.128,99.053 336.427,100.098C335.76,101.165 335.084,102.246 334.404,103.334C333.069,105.528 331.621,107.704 330.34,109.976C329.034,112.233 327.728,114.491 326.443,116.713C325.216,118.966 324.009,121.184 322.841,123.329C321.659,125.468 320.581,127.568 319.559,129.559C318.54,131.55 317.577,133.435 316.687,135.173C313.188,142.155 310.976,146.868 310.976,146.868C310.755,147.334 310.729,147.799 310.928,147.952C311.151,148.122 311.57,147.843 311.864,147.328C311.864,147.328 314.093,143.402 317.43,137.345C331.737,140.107 347.25,133.888 353.843,123.601C349.582,124.366 345.321,125.131 341.06,125.896C352.046,123.634 360.758,115.063 362.71,104.596C360.531,105.037 358.352,105.477 356.173,105.917C359.685,98.59 363.198,91.263 366.711,83.936C363.905,85.184 361.099,86.432 358.293,87.679Z" style="fill-rule:nonzero;"/>
        </g>
    </g>
</svg>
